# xmcd CD database file
#
# Track frame offsets:
#	150
#	17687
#	33192
#	49232
#	65297
#	86412
#	99467
#	115902
#	133067
#	151365
#	167280
#	183420
#	199835
#	216312
#	235230
#	254910
#
# Disc length: 3606 seconds
#
# Revision: 4
# Processed by: cddbd v1.4PL0 Copyright (c) Steve Scherf et al.
# Submitted via: CDex 1.40Release
#
DISCID=da0e1410
DTITLE=Shania Twain - Come On Over
DYEAR=1997
DGENRE=Country
TTITLE0=Man! I Feel Like A Woman!
TTITLE1=I'm Holdin' On To Love (To Save My Life)
TTITLE2=Love Gets Me Every Time
TTITLE3=Don't Be Stupid (You Know I Love You)
TTITLE4=From This Moment On
TTITLE5=Come On Over
TTITLE6=When
TTITLE7=Whatever You Do! Don't!
TTITLE8=If You Wanna Touch Her, Ask!
TTITLE9=You're Still The One
TTITLE10=Honey, I'm Home
TTITLE11=That Don't Impress Me Much
TTITLE12=Black Eyes, Blue Tears
TTITLE13=I Won't Leave You Lonely
TTITLE14=Rock This Country!
TTITLE15=You've Got A Way
EXTD=YEAR: 1997 ID3G: 2
EXTT0=
EXTT1=
EXTT2=
EXTT3=
EXTT4=
EXTT5=
EXTT6=
EXTT7=
EXTT8=
EXTT9=
EXTT10=
EXTT11=
EXTT12=
EXTT13=
EXTT14=
EXTT15=
PLAYORDER=
